# xmcd CD database file
#
# Track frame offsets:
#	150
#	27195
#	61297
#	88710
#	109448
#	131296
#	156701
#	178657
#	202150
#
# Disc length: 2867 seconds
#
# Revision: 0
# Processed by: cddbd v1.4PL0 Copyright (c) Steve Scherf et al.
# Submitted via: CDex 1.50Beta7
#
DISCID=810b3109
DTITLE=Tátrai and Pálvölgyi - Csillagszél
DYEAR=1900
DGENRE=Jazz
TTITLE0=Tengermély
TTITLE1=Kisangyalom
TTITLE2=Bolyongó
TTITLE3=Az otthon melege
TTITLE4=Fû dal II.
TTITLE5=Álom (zuhanás a múlba)
TTITLE6=Egy kis swingi-lingi
TTITLE7=Egy éj - egy nap
TTITLE8=Bye Bye Blues
EXTD=
EXTT0=
EXTT1=
EXTT2=
EXTT3=
EXTT4=
EXTT5=
EXTT6=
EXTT7=
EXTT8=
PLAYORDER=
